<svg width="60" height="80" viewBox="0 0 60 80" fill="none" xmlns="http://www.w3.org/2000/svg">
  <defs>
    <linearGradient id="auraGradient" x1="50%" y1="100%" x2="50%" y2="0%">
      <stop offset="0%" stop-color="#4338CA" /> <stop offset="30%" stop-color="#60A5FA" /> <stop offset="70%" stop-color="#BFDBFE" /> <stop offset="100%" stop-color="#FFFFFF" /> </linearGradient>
  </defs>

  <path d="M30 80 C10 70 5 45 15 20 C20 5 25 0 30 0 C35 0 40 5 45 20 C55 45 50 70 30 80 Z" fill="url(#auraGradient)" opacity="0.6"/>
  
  <path d="M30 75 C15 68 12 45 20 22 C24 10 27 5 30 5 C33 5 36 10 40 22 C48 45 45 68 30 75 Z" fill="url(#auraGradient)" opacity="0.8"/>
  
  <path d="M30 70 C20 65 18 45 24 25 C27 15 28.5 10 30 10 C31.5 10 33 15 36 25 C42 45 40 65 30 70 Z" fill="url(#auraGradient)"/>
</svg>
